<svg viewBox="0 0 51 54" xmlns="http://www.w3.org/2000/svg">
  <style>
    @media (prefers-color-scheme: dark) {
      svg {
        fill: white;
      }
    }
  </style>
  <path
    fill-rule="evenodd"
    clip-rule="evenodd"
    d="M2.49028 20.2745C3.11357 20.4867 3.77836 20.6073 4.47228 20.6073C5.09555 20.6073 5.69673 20.5117 6.26447 20.3391V36.7481C6.26447 37.328 6.57396 37.8684 7.07323 38.1582L22.7674 47.2835C23.5097 46.4108 24.6092 45.8554 25.8368 45.8554C27.1729 45.8554 28.3553 46.5134 29.0923 47.5218C29.1052 47.5403 29.1193 47.5576 29.1322 47.5756C29.1841 47.6494 29.2325 47.7248 29.2795 47.8026L29.3333 47.891C29.3749 47.9626 29.4132 48.0355 29.4497 48.1093C29.4697 48.1489 29.4886 48.1891 29.5075 48.2294C29.5388 48.2978 29.5684 48.3673 29.5964 48.4378C29.6164 48.4882 29.6342 48.5388 29.6521 48.5899C29.6746 48.6544 29.6967 48.7195 29.7156 48.7852C29.734 48.8477 29.7485 48.9107 29.7642 48.9737L29.8045 49.1513C29.8202 49.23 29.8304 49.3097 29.8412 49.3902C29.8472 49.4379 29.8564 49.4847 29.8607 49.5324C29.8731 49.6627 29.8807 49.7941 29.8807 49.9277C29.8807 50.1406 29.8596 50.3474 29.8277 50.5516L29.8164 50.6275C29.4859 52.5406 27.829 54 25.8368 54C24.0602 54 22.5511 52.8386 22.0093 51.2314L5.18614 41.4502C3.5174 40.4806 2.49028 38.6876 2.49028 36.7481V20.2745ZM46.5274 10.2908C48.7574 10.2908 50.5711 12.1173 50.5711 14.3631C50.5711 15.5848 50.032 16.6794 49.1833 17.4265V36.7481C49.1833 38.6876 48.1562 40.4806 46.4875 41.4502L32.0335 49.8539C32.0173 48.479 31.5557 47.2135 30.7902 46.1876L44.6005 38.1582C45.0997 37.8684 45.4093 37.328 45.4093 36.7481V18.2736C43.7221 17.7838 42.4837 16.2179 42.4837 14.3631C42.4837 13.4601 42.7807 12.6277 43.2768 11.9517C43.2844 11.9409 43.2925 11.9306 43.3 11.9197C43.3938 11.7948 43.4941 11.6743 43.6008 11.5608L43.6154 11.545C43.837 11.3127 44.085 11.1079 44.3557 10.9337C44.3836 10.9152 44.4133 10.8984 44.4419 10.8804C44.5492 10.8158 44.6587 10.755 44.7719 10.7002C44.8048 10.6844 44.8378 10.6671 44.8711 10.6519C45.0129 10.5878 45.1574 10.5286 45.3074 10.4814L45.6013 10.3994C45.8989 10.3287 46.2088 10.2908 46.5274 10.2908ZM25.8366 0C26.7677 0 27.6983 0.242165 28.5325 0.72704L43.0723 9.18112C42.002 9.90759 41.1739 10.9637 40.7183 12.2006L26.6453 4.01908C26.4002 3.87572 26.1203 3.80081 25.8366 3.80081C25.5531 3.80081 25.2737 3.87572 25.0279 4.01908L8.45118 13.6574C8.49107 13.887 8.51587 14.1216 8.51587 14.3632C8.51587 16.1154 7.4095 17.608 5.86478 18.1814C5.85292 18.1858 5.84051 18.1906 5.82865 18.1944C5.70627 18.2385 5.58227 18.2765 5.45501 18.3085L5.37899 18.328C5.26253 18.3551 5.14337 18.3764 5.02367 18.3931L4.9261 18.4079C4.77675 18.4246 4.62576 18.4356 4.47212 18.4356C4.30767 18.4356 4.14592 18.4225 3.98577 18.403C3.94265 18.3974 3.9006 18.3899 3.85799 18.3834C3.73507 18.3643 3.61429 18.34 3.49513 18.3101C3.45847 18.3008 3.42182 18.2921 3.38515 18.2819C3.06974 18.1922 2.76995 18.0679 2.49012 17.9088L2.24978 17.7607C1.15399 17.0318 0.428345 15.7822 0.428345 14.3632C0.428345 12.1175 2.24265 10.2909 4.47212 10.2909C5.05064 10.2909 5.59951 10.4158 6.09716 10.6368L23.1407 0.72704C23.9749 0.242165 24.906 0 25.8366 0Z"
  />
  <path d="M18.3674 34.57L21.5676 37.7702L22.4387 36.8991L19.2385 33.6989L18.3674 34.57Z" />
  <path
    d="M35.9186 29.3874C35.9186 30.8472 35.3494 32.2201 34.3171 33.2524C33.2848 34.2847 31.9119 34.8532 30.4522 34.8532C28.9918 34.8532 27.6195 34.2847 26.5872 33.2524L23.842 30.5072L22.1827 30.3034L22.046 29.5611L21.8532 28.5184L21.4682 28.1334L19.8249 26.4908C19.3044 25.9697 18.6128 25.6833 17.8767 25.6833C17.1401 25.6833 16.4484 25.9697 15.9279 26.4908C15.4074 27.0106 15.121 27.7029 15.121 28.439C15.121 29.1762 15.4074 29.8685 15.9279 30.3884L17.9413 32.4018L18.6318 33.0929L17.7756 33.9786L17.1652 33.3682L15.0564 31.2592C14.3037 30.5066 13.8892 29.5051 13.8892 28.4389C13.8892 27.3739 14.3037 26.3724 15.057 25.6192C15.8097 24.8659 16.8112 24.4514 17.8767 24.4514C18.9417 24.4514 19.9432 24.8659 20.6964 25.6192L22.6496 27.5729L24.6618 28.2246L24.7591 29.6825L27.4581 32.3809C28.2576 33.181 29.3207 33.6214 30.4522 33.6214C31.583 33.6214 32.6461 33.181 33.4462 32.3809C34.2457 31.5814 34.6867 30.5184 34.6867 29.3875C34.6867 28.256 34.2457 27.1929 33.4462 26.3935L30.4669 23.4148L31.3385 22.5432L34.3171 25.5219C35.3494 26.5541 35.9186 27.927 35.9186 29.3874Z"
  />
  <path
    d="M36.3714 23.6206L35.5004 22.7496L36.309 21.9409C37.1379 21.1121 37.1379 19.7634 36.309 18.9344L35.6984 18.3238L36.5694 17.4527L37.1801 18.0634C37.8143 18.6976 38.1636 19.5408 38.1636 20.4377C38.1636 21.3346 37.8143 22.1778 37.1801 22.812L36.3714 23.6206Z"
  />
  <path
    d="M18.6319 33.0928L17.7757 33.9785L17.1653 33.3682C17.4234 33.0454 17.6815 32.7233 17.9414 32.4018L18.6319 33.0928Z"
  />
  <path
    d="M37.3482 14.5127C36.4871 13.68 35.1074 13.7243 34.3018 14.6113L29.1138 20.3185L28.2651 20.3253L28.2841 21.2313L27.2106 22.412C25.6658 24.1107 24.1475 25.8329 22.6545 27.5772L23.7047 28.6273L24.7536 29.6763C26.4585 28.1143 28.1406 26.5264 29.7987 24.9133L30.8969 23.8446L31.7802 22.9848L37.3537 17.5609C38.2123 16.7257 38.2099 15.3455 37.3482 14.5127ZM36.4218 16.358L35.9562 16.8397L35.3175 17.1532L35.1001 17.7254L33.8645 19.0035C33.7438 19.1285 33.583 19.1913 33.4216 19.1913C33.2676 19.1913 33.1131 19.1334 32.9936 19.0182C32.749 18.7817 32.7423 18.3918 32.9788 18.1473L35.5355 15.5019C35.772 15.2574 36.1619 15.2506 36.4065 15.4871C36.6515 15.7237 36.6577 16.1135 36.4218 16.358ZM22.8485 29.5137L21.8532 28.5184C20.6601 29.927 19.4843 31.3498 18.3264 32.7868C18.0665 33.1083 17.8084 33.4304 17.5503 33.7532C15.9452 35.766 14.3733 37.806 12.836 39.8724C15.7838 37.519 18.6731 35.0947 21.5009 32.6008C22.2862 31.9085 23.0666 31.2106 23.8421 30.5072L22.8485 29.5137Z"
  />
  <path
    d="M21.8532 28.5184L22.8485 29.5137L12.836 39.8724C14.3733 37.806 15.9452 35.766 17.5503 33.7532C17.8084 33.4304 18.0664 33.1083 18.3264 32.7868C19.4843 31.3498 20.6601 29.927 21.8532 28.5184Z"
  />
  <path d="M22.4636 29.1287L22.046 29.5612L21.8532 28.5184L22.4636 29.1287Z" />
  <path
    d="M37.3482 14.5127L36.4064 15.4871C36.1619 15.2506 35.772 15.2573 35.5355 15.5019L32.9787 18.1473C32.7423 18.3918 32.749 18.7817 32.9935 19.0182L23.7046 28.6274L22.6545 27.5772C24.1475 25.8329 25.6658 24.1108 27.2105 22.4121L28.2841 21.2313L28.2651 20.3253L29.1138 20.3185L34.3018 14.6113C35.1074 13.7243 36.4871 13.68 37.3482 14.5127Z"
  />
  <path
    d="M35.9635 16.8471L35.0926 17.718L32.8327 15.4582L32.4662 15.0917C31.8934 14.5182 31.1315 14.2029 30.3216 14.2029C29.511 14.2029 28.7498 14.5182 28.1769 15.091C27.6041 15.6645 27.2888 16.4258 27.2888 17.2363C27.2888 18.0469 27.6041 18.8082 28.1769 19.381L28.7621 19.9667L29.1138 20.3184L28.2842 21.2306L27.3061 20.2525C26.5004 19.4469 26.0569 18.3757 26.0569 17.2363C26.0569 16.0968 26.5004 15.0257 27.3061 14.2201C28.111 13.4145 29.1821 12.971 30.3216 12.971C31.4611 12.971 32.5316 13.4145 33.3372 14.2207L33.6593 14.5429L34.0283 14.9118L34.715 15.5986L35.0846 15.9682L35.9562 16.8397L35.9635 16.8471Z"
  />
  <path
    d="M28.7621 19.9668L29.1138 20.3185L28.2841 21.2307L27.9367 20.8833C28.2121 20.5771 28.488 20.2705 28.7621 19.9668Z"
  />
</svg>
