<svg viewBox="0 0 51 54" xmlns="http://www.w3.org/2000/svg">
  <style>
    @media (prefers-color-scheme: dark) {
      svg {
        fill: white;
      }
    }
  </style>
<path
        fill-rule="evenodd"
        clip-rule="evenodd"
        d="M2.06194 20.2745C2.68522 20.4867 3.35002 20.6073 4.04393 20.6073C4.6672 20.6073 5.26838 20.5117 5.83612 20.3391V36.7481C5.83612 37.328 6.14561 37.8684 6.64488 38.1582L22.3391 47.2835C23.0814 46.4108 24.1808 45.8554 25.4084 45.8554C26.7446 45.8554 27.927 46.5134 28.6639 47.5218C28.6769 47.5403 28.6909 47.5576 28.7039 47.5756C28.7557 47.6494 28.8041 47.7248 28.8511 47.8026L28.9049 47.891C28.9465 47.9626 28.9849 48.0355 29.0214 48.1093C29.0414 48.1489 29.0603 48.1891 29.0792 48.2294C29.1105 48.2978 29.14 48.3673 29.1681 48.4378C29.1881 48.4882 29.2059 48.5388 29.2237 48.5899C29.2462 48.6544 29.2684 48.7195 29.2873 48.7852C29.3056 48.8477 29.3202 48.9107 29.3359 48.9737L29.3762 49.1513C29.3918 49.23 29.4021 49.3097 29.4129 49.3902C29.4188 49.4379 29.428 49.4847 29.4323 49.5324C29.4448 49.6627 29.4523 49.7941 29.4523 49.9277C29.4523 50.1406 29.4313 50.3474 29.3994 50.5516L29.3881 50.6275C29.0576 52.5406 27.4007 54 25.4084 54C23.6318 54 22.1227 52.8386 21.5809 51.2314L4.7578 41.4502C3.08905 40.4806 2.06194 38.6876 2.06194 36.7481V20.2745ZM46.0991 10.2908C48.3291 10.2908 50.1428 12.1173 50.1428 14.3631C50.1428 15.5848 49.6037 16.6794 48.755 17.4265V36.7481C48.755 38.6876 47.7279 40.4806 46.0591 41.4502L31.6051 49.8539C31.5889 48.479 31.1274 47.2135 30.3619 46.1876L44.1722 38.1582C44.6713 37.8684 44.9809 37.328 44.9809 36.7481V18.2736C43.2938 17.7838 42.0554 16.2179 42.0554 14.3631C42.0554 13.4601 42.3524 12.6277 42.8485 11.9517C42.856 11.9409 42.8641 11.9306 42.8717 11.9197C42.9655 11.7948 43.0657 11.6743 43.1725 11.5608L43.187 11.545C43.4086 11.3127 43.6567 11.1079 43.9274 10.9337C43.9553 10.9152 43.985 10.8984 44.0136 10.8804C44.1209 10.8158 44.2303 10.755 44.3435 10.7002C44.3765 10.6844 44.4094 10.6671 44.4427 10.6519C44.5846 10.5878 44.7291 10.5286 44.879 10.4814L45.173 10.3994C45.4705 10.3287 45.7805 10.2908 46.0991 10.2908ZM25.4083 0C26.3394 0 27.27 0.242165 28.1041 0.72704L42.644 9.18112C41.5737 9.90759 40.7455 10.9637 40.2899 12.2006L26.217 4.01908C25.9718 3.87572 25.6919 3.80081 25.4083 3.80081C25.1248 3.80081 24.8454 3.87572 24.5995 4.01908L8.02283 13.6574C8.06272 13.887 8.08753 14.1216 8.08753 14.3632C8.08753 16.1154 6.98116 17.608 5.43643 18.1814C5.42457 18.1858 5.41217 18.1906 5.40031 18.1944C5.27792 18.2385 5.15392 18.2765 5.02666 18.3085L4.95065 18.328C4.83419 18.3551 4.71503 18.3764 4.59533 18.3931L4.49775 18.4079C4.3484 18.4246 4.19742 18.4356 4.04377 18.4356C3.87932 18.4356 3.71758 18.4225 3.55743 18.403C3.5143 18.3974 3.47225 18.3899 3.42965 18.3834C3.30673 18.3643 3.18595 18.34 3.06679 18.3101C3.03012 18.3008 2.99347 18.2921 2.95681 18.2819C2.64139 18.1922 2.3416 18.0679 2.06177 17.9088L1.82144 17.7607C0.725648 17.0318 0 15.7822 0 14.3632C0 12.1175 1.81431 10.2909 4.04377 10.2909C4.62229 10.2909 5.17117 10.4158 5.66881 10.6368L22.7124 0.72704C23.5465 0.242165 24.4777 0 25.4083 0Z"
/>
<path
        d="M21.3867 38.8293H18.9866C18.1866 38.8293 17.9867 38.5293 16.8867 35.7293L16.3867 35.5293C13.5867 36.8293 13.1866 36.8293 12.6866 36.3293L10.9866 34.7293C10.3866 34.1293 10.4866 33.7293 11.6866 31.0293L11.4866 30.6293C8.58655 29.6293 8.28665 29.4293 8.28665 28.5293V26.2293C8.28665 25.4293 8.58655 25.2293 11.4866 24.1293L11.6866 23.7293C10.3866 21.0293 10.2866 20.6293 10.8866 20.0293L12.5866 18.4294C13.1866 17.9294 13.4867 17.9293 16.3867 19.1293L16.8867 18.9294C17.9867 16.0294 18.1866 15.7293 18.9866 15.7293H21.3867C22.1867 15.7293 22.3866 16.0293 23.4866 18.8293L23.9866 19.0293C26.7866 17.7293 27.1866 17.7293 27.6866 18.2293L29.3867 19.8293C29.9867 20.4293 29.8866 20.8293 28.6866 23.5293L28.8867 23.9294C31.7866 24.9294 32.0866 25.1293 32.0866 26.0293V28.3293C32.0866 29.1293 31.7866 29.3294 28.8867 30.4294L28.6866 30.8293C29.9865 33.5293 30.0866 33.9293 29.4866 34.5293L27.7867 36.1293C27.1867 36.6293 26.8866 36.6294 23.9866 35.4294L23.4866 35.6293C22.3866 38.5293 22.1867 38.8293 21.3867 38.8293ZM19.6866 36.7293H20.7867C20.9867 36.2293 21.3866 35.3293 21.6866 34.5293L21.8867 34.1293L24.0866 33.2293L24.4866 33.4294C25.2866 33.7294 26.1867 34.1293 26.7867 34.3293L27.5866 33.5293C27.3866 33.0293 26.9866 32.1293 26.5866 31.3293L26.3867 30.9294L27.2867 28.7293L27.6866 28.5293C28.4865 28.2293 29.3865 27.8293 29.9865 27.6293V26.5293C29.4865 26.3293 28.4865 25.9293 27.6866 25.6293L27.2867 25.4294L26.3867 23.3293L26.5866 22.9294C26.8866 22.1294 27.2866 21.2293 27.4866 20.7293L26.6866 19.9294C26.1866 20.1294 25.1866 20.5294 24.4866 20.9294L24.0866 21.1293L21.8867 20.2293L21.6866 19.8293C21.3866 19.0293 20.9866 18.1293 20.6866 17.6293H19.5866C19.3866 18.1293 18.9866 19.0293 18.6866 19.8293L18.4866 20.2293L16.2867 21.1293L15.8867 20.9294C15.0867 20.6294 14.1866 20.2293 13.5866 20.0293L12.7867 20.8293C12.9867 21.3293 13.3867 22.2293 13.7867 23.0293L13.9866 23.4294L13.0866 25.6293L12.6866 25.8293C11.8866 26.1293 10.9866 26.5293 10.3866 26.7293V27.8293C10.8866 28.0293 11.8866 28.4293 12.6866 28.7293L13.0866 28.9294L13.9866 31.0293L13.7867 31.4294C13.4867 32.2294 13.0867 33.1293 12.8867 33.6293L13.6866 34.4294C14.1866 34.2294 15.1867 33.8294 15.8867 33.4294L16.2867 33.2293L18.4866 34.1293L18.6866 34.5293C18.9866 35.2293 19.3866 36.2293 19.6866 36.7293ZM20.1866 31.6293C17.6866 31.6293 15.6866 29.6293 15.6866 27.2293C15.6866 24.7293 17.6866 22.8293 20.1866 22.8293C22.6866 22.8293 24.6866 24.8293 24.6866 27.2293C24.6866 29.6293 22.6866 31.6293 20.1866 31.6293ZM20.1866 24.9294C18.8866 24.9294 17.7867 25.9293 17.7867 27.2293C17.7867 28.5293 18.8866 29.5293 20.1866 29.5293C21.4866 29.5293 22.5866 28.5293 22.5866 27.2293C22.5866 25.9293 21.4866 24.9294 20.1866 24.9294Z"
/>
<path
        d="M37.4864 26.6292C37.1864 26.6292 36.7864 26.3292 36.0864 25.5292H35.9864C35.0864 26.4292 34.7864 26.7292 34.2864 26.5292L33.2864 26.0292C32.7864 25.8292 32.7864 25.4292 32.8864 24.1292L32.7864 24.0292C31.4864 24.0292 31.0864 24.0292 30.8864 23.5292L30.4864 22.4293C30.2864 21.9293 30.4864 21.6292 31.4864 20.7292V20.6292C30.4864 19.7292 30.2864 19.4293 30.4864 18.9293L30.9864 17.9293C31.1864 17.4293 31.5864 17.4292 32.8864 17.5292C32.8864 16.2292 32.8864 15.8292 33.3864 15.6292L34.4864 15.2292C34.9864 15.0292 35.1864 15.3292 36.1864 16.3292H36.2864C37.1864 15.4292 37.4864 15.1292 37.9864 15.3292L38.9864 15.8292C39.4864 16.0292 39.4864 16.4292 39.3864 17.7292L39.4864 17.8292C40.7864 17.8292 41.1864 17.8292 41.3864 18.3292L41.7864 19.4293C41.9864 19.9293 41.7864 20.2292 40.7864 21.1292V21.2292C41.7864 22.1292 41.9864 22.4293 41.7864 22.9293L41.2864 23.9293C41.0864 24.4293 40.6864 24.4292 39.3864 24.3292C39.3864 25.6292 39.3864 26.0292 38.8864 26.2292L37.8864 26.6292C37.6864 26.5292 37.5864 26.6292 37.4864 26.6292ZM35.3864 24.0292H36.6864L36.8864 24.2292C37.0864 24.5292 37.3864 24.8292 37.5864 25.0292L37.7864 24.9293C37.7864 24.6293 37.7864 24.2293 37.7864 23.9293V23.6292L38.6864 22.7292H38.9864C39.3864 22.7292 39.7864 22.7292 39.9864 22.7292L40.0864 22.5292C39.8864 22.3292 39.5864 22.0292 39.3864 21.8292L39.1864 21.6292V20.3292L39.3864 20.1292C39.6864 19.9292 39.8864 19.6293 40.0864 19.4293L39.9864 19.2292C39.6864 19.2292 39.2864 19.2292 38.9864 19.2292H38.6864L37.7864 18.3292V18.0292C37.7864 17.7292 37.7864 17.2292 37.7864 17.0292L37.4864 16.9293C37.2864 17.1293 36.9864 17.4292 36.7864 17.6292L36.5864 17.8292L35.2864 17.7292L35.0864 17.5292C34.8864 17.2292 34.5864 16.9292 34.3864 16.7292L34.1864 16.8292C34.1864 17.1292 34.1864 17.5292 34.1864 17.8292V18.1292L33.2864 19.0292H32.9864C32.5864 19.0292 32.1864 19.0292 31.9864 19.0292L31.8864 19.2292C32.0864 19.4292 32.3864 19.7293 32.5864 19.9293L32.7864 20.1292V21.4293L32.5864 21.6292C32.2864 21.8292 32.0864 22.1292 31.8864 22.3292L31.9864 22.5292C32.2864 22.5292 32.6864 22.5292 32.9864 22.5292H33.2864L34.1864 23.4293V23.7292C34.1864 24.0292 34.1864 24.5292 34.1864 24.7292L34.4864 24.8292C34.6864 24.6292 34.9864 24.3292 35.1864 24.1292L35.3864 24.0292ZM36.1864 23.2292C35.8864 23.2292 35.4864 23.1292 35.1864 23.0292C33.9864 22.5292 33.4864 21.1293 33.9864 19.9293C34.2864 19.3293 34.6864 18.9292 35.2864 18.7292C35.8864 18.5292 36.4864 18.5292 37.0864 18.8292C38.2864 19.3292 38.7864 20.7293 38.2864 21.9293C37.8864 22.7293 37.0864 23.2292 36.1864 23.2292ZM36.0864 20.0292C35.9864 20.0292 35.8864 20.0292 35.7864 20.1292C35.5864 20.2292 35.3864 20.4292 35.2864 20.6292C35.0864 21.1292 35.2864 21.6292 35.7864 21.8292C36.2864 22.0292 36.7864 21.8292 36.9864 21.3292C37.1864 20.8292 36.9864 20.3292 36.4864 20.1292C36.3864 20.0292 36.2864 20.0292 36.0864 20.0292Z"
/>
</svg>
