<svg xmlns="http://www.w3.org/2000/svg" viewBox="0 0 500 500">
    <g id="Gear--inject-3">
        <path d="M307.77,119.9a42.3,42.3,0,0,0-3.22-7.76l2-6.55L293.62,92.65l-6.55,2a42.3,42.3,0,0,0-7.76-3.22l-3.22-6h-18.3l-3.21,6a42,42,0,0,0-7.76,3.22l-6.55-2-12.94,12.94,2,6.55a43,43,0,0,0-3.21,7.76l-6.05,3.22v18.3l6.05,3.21a42.67,42.67,0,0,0,3.21,7.76l-2,6.55,12.94,12.94,6.55-2a42.67,42.67,0,0,0,7.76,3.21l3.21,6h18.3l3.22-6a43,43,0,0,0,7.76-3.21l6.55,2,12.94-12.94-2-6.55a42,42,0,0,0,3.22-7.76l6.05-3.21v-18.3Zm-40.83,38.36a26,26,0,1,1,26-26A26,26,0,0,1,266.94,158.26Z"
              style="fill:#5F6184"></path>
        <path d="M307.77,119.9a42.3,42.3,0,0,0-3.22-7.76l2-6.55L293.62,92.65l-6.55,2a42.3,42.3,0,0,0-7.76-3.22l-3.22-6h-18.3l-3.21,6a42,42,0,0,0-7.76,3.22l-6.55-2-12.94,12.94,2,6.55a43,43,0,0,0-3.21,7.76l-6.05,3.22v18.3l6.05,3.21a42.67,42.67,0,0,0,3.21,7.76l-2,6.55,12.94,12.94,6.55-2a42.67,42.67,0,0,0,7.76,3.21l3.21,6h18.3l3.22-6a43,43,0,0,0,7.76-3.21l6.55,2,12.94-12.94-2-6.55a42,42,0,0,0,3.22-7.76l6.05-3.21v-18.3Zm-40.83,38.36a26,26,0,1,1,26-26A26,26,0,0,1,266.94,158.26Z"
              style="fill:#fff;opacity:0.2"></path>
        <path d="M266.94,123.65a8.62,8.62,0,1,0,8.62,8.62A8.62,8.62,0,0,0,266.94,123.65Z" style="fill:#5F6184"></path>
        <path d="M438,148.93a61.16,61.16,0,0,0-4.59-11.1h0l2.86-9.36L417.8,110l-9.37,2.87h0a58.11,58.11,0,0,0-11.09-4.6h0l-4.59-8.64H366.6l-4.6,8.64a58.65,58.65,0,0,0-11.09,4.6h0L341.55,110l-18.49,18.49,2.86,9.36h0a59.76,59.76,0,0,0-4.59,11.1l-8.65,4.59v26.15l8.64,4.6h0a59.39,59.39,0,0,0,4.59,11.09h0l-2.86,9.35,18.49,18.49,9.36-2.86A58.61,58.61,0,0,0,362,224.94l4.6,8.65h26.15l4.59-8.64h0a59.42,59.42,0,0,0,11.09-4.6l9.37,2.86,18.49-18.49-2.86-9.36h0A60.77,60.77,0,0,0,438,184.27h0l8.64-4.6V153.52ZM379.67,214a47.41,47.41,0,1,1,47.41-47.41A47.41,47.41,0,0,1,379.67,214Z"
              style="fill:#5F6184"></path>
        <path d="M379.67,125.83a40.77,40.77,0,1,0,40.78,40.77A40.82,40.82,0,0,0,379.67,125.83Zm0,76.11A35.34,35.34,0,1,1,415,166.6,35.38,35.38,0,0,1,379.67,201.94Z"
              style="fill:#5F6184"></path>
        <path d="M379.67,125.83a40.77,40.77,0,1,0,40.78,40.77A40.82,40.82,0,0,0,379.67,125.83Zm0,76.11A35.34,35.34,0,1,1,415,166.6,35.38,35.38,0,0,1,379.67,201.94Z"
              style="opacity:0.2"></path>
        <path d="M286,236.16a1,1,0,0,1-1-1v-2a1,1,0,1,1,2,0v2A1,1,0,0,1,286,236.16Z" style="fill:#5F6184"></path>
        <path d="M270.43,210.32a5.41,5.41,0,0,1-2.06-2.45,1,1,0,0,0-1.84.79,7.55,7.55,0,0,0,2.81,3.34,1,1,0,0,0,.54.16,1,1,0,0,0,.55-1.84Z"
              style="fill:#5F6184"></path>
        <path d="M266.94,197.83a1,1,0,0,0,1-1V193a1,1,0,0,0-2,0v3.83A1,1,0,0,0,266.94,197.83Z"
              style="fill:#5F6184"></path>
        <path d="M277.35,211.2h-3.84a1,1,0,0,0,0,2h3.84a1,1,0,0,0,0-2Z" style="fill:#5F6184"></path>
        <path d="M267.94,204.5v-3.83a1,1,0,0,0-2,0v3.83a1,1,0,0,0,2,0Z" style="fill:#5F6184"></path>
        <path d="M286.94,217.7a1,1,0,0,0-1.12-.86A1,1,0,0,0,285,218a5.36,5.36,0,0,1,.05.7v3a1,1,0,0,0,2,0v-3A7.73,7.73,0,0,0,286.94,217.7Z"
              style="fill:#5F6184"></path>
        <path d="M286,224.49a1,1,0,0,0-1,1v3.84a1,1,0,1,0,2,0v-3.84A1,1,0,0,0,286,224.49Z" style="fill:#5F6184"></path>
        <path d="M285.13,213.73a7.41,7.41,0,0,0-3.71-2.29,1,1,0,0,0-.5,1.94,5.39,5.39,0,0,1,2.71,1.67,1,1,0,0,0,.75.34,1,1,0,0,0,.75-1.66Z"
              style="fill:#5F6184"></path>
        <path d="M266.94,190.12a1,1,0,0,1-1-1v-2a1,1,0,0,1,2,0v2A1,1,0,0,1,266.94,190.12Z" style="fill:#5F6184"></path>
    </g>
    <g id="Desk--inject-3">
        <rect x="101.83" y="286.51" width="231.54" height="3.71" style="fill:#5F6184"></rect>
        <rect x="333.37" y="286.51" width="50.24" height="3.71" transform="translate(716.98 576.73) rotate(180)"
              style="fill:#5F6184"></rect>
        <rect x="333.37" y="286.51" width="50.24" height="3.71" transform="translate(716.98 576.73) rotate(180)"
              style="opacity:0.2"></rect>
        <polygon points="366.83 294.19 118.61 294.19 110.31 290.22 375.13 290.22 366.83 294.19"
                 style="fill:#5F6184"></polygon>
        <polygon points="126.11 294.19 126.11 412.53 129.29 412.53 133.29 294.19 126.11 294.19"
                 style="fill:#5F6184"></polygon>
        <polygon points="163.65 294.19 163.65 412.53 166.83 412.53 170.83 294.19 163.65 294.19"
                 style="fill:#5F6184"></polygon>
        <polygon points="366.83 294.19 366.83 412.53 363.66 412.53 359.65 294.19 366.83 294.19"
                 style="fill:#5F6184"></polygon>
        <polygon points="329.3 294.19 329.3 412.53 326.12 412.53 322.12 294.19 329.3 294.19"
                 style="fill:#5F6184"></polygon>
        <polygon
                points="253.74 241.59 243.29 284.16 243.29 284.16 243 286.51 315.08 286.51 315.38 284.16 325.82 241.59 253.74 241.59"
                style="fill:#5F6184"></polygon>
        <polygon
                points="253.74 241.59 243.29 284.16 243.29 284.16 243 286.51 315.08 286.51 315.38 284.16 325.82 241.59 253.74 241.59"
                style="opacity:0.30000000000000004"></polygon>
        <polygon points="323.61 241.59 251.52 241.59 241.08 284.16 313.16 284.16 323.61 241.59"
                 style="fill:#5F6184"></polygon>
        <polygon points="311.63 282.21 321.13 243.54 253.05 243.54 243.56 282.21 311.63 282.21"
                 style="fill:#263238"></polygon>

        <polygon points="294.38 284.16 294.08 286.51 214.71 286.51 215 284.16 294.38 284.16"
                 style="fill:#fff;opacity:0.6000000000000001"></polygon>
        <path d="M144.44,278.77a6.35,6.35,0,0,0-5.63-6.1v-1.15a.5.5,0,0,0-.52-.49h-10.8a.51.51,0,0,0-.53.49v15h11.85v-1.64A6.34,6.34,0,0,0,144.44,278.77Zm-5.63,4.17v-8.33a4.21,4.21,0,0,1,0,8.33Z"
              style="fill:#5F6184"></path>
        <polygon points="346.56 286.51 356.6 286.51 353.63 264.52 346.56 264.52 346.56 286.51"
                 style="fill:#263238"></polygon>
        <polygon points="331.84 286.51 350.86 286.51 354.39 260.77 335.38 260.77 331.84 286.51"
                 style="fill:#5F6184"></polygon>
        <polygon points="331.84 286.51 350.86 286.51 354.39 260.77 335.38 260.77 331.84 286.51"
                 style="opacity:0.30000000000000004"></polygon>
        <polygon points="329.3 286.51 349.09 286.51 352.63 260.77 332.84 260.77 329.3 286.51"
                 style="fill:#5F6184"></polygon>
        <polygon points="347.34 284.48 350.32 262.8 334.59 262.8 331.61 284.48 347.34 284.48"
                 style="fill:#fff;opacity:0.4"></polygon>
    </g>
    <g id="Character--inject-3">
        <path d="M197.54,248.51l-.82.88-.88,1c-.59.68-1.18,1.37-1.74,2.08-1.12,1.42-2.2,2.87-3.21,4.36a46.61,46.61,0,0,0-5,9.24,28.59,28.59,0,0,0-1.42,4.78c-.16.92-.26,1.32-.31,1.71a2.68,2.68,0,0,0,0,.94,3.9,3.9,0,0,0,2,2.25,14,14,0,0,0,2.12,1.07q.58.24,1.2.45c.38.14.86.28,1.16.4v5.51c-.7.1-1.21.18-1.8.22s-1.16.05-1.75,0a17,17,0,0,1-3.6-.46,13.49,13.49,0,0,1-3.78-1.52,10.94,10.94,0,0,1-3.48-3.23,11.67,11.67,0,0,1-1.82-4.66,9.89,9.89,0,0,1-.13-1.18,10.94,10.94,0,0,1,0-1.14v-.56a3,3,0,0,1,0-.45l.08-.88a34.7,34.7,0,0,1,1.44-6.73,49.94,49.94,0,0,1,5.67-11.92,57.63,57.63,0,0,1,3.77-5.25c.67-.84,1.36-1.66,2.08-2.47.35-.41.72-.81,1.1-1.21s.73-.75,1.25-1.25Z"
              style="fill:#b55b52"></path>
        <path d="M188.65,277.55l4.66-3.42,2.65,9.58s-4.13,1.53-7.28-.53Z" style="fill:#b55b52"></path>
        <polygon points="199.78 271.83 201.6 279.85 195.96 283.71 193.31 274.13 199.78 271.83"
                 style="fill:#b55b52"></polygon>
        <path d="M229.25,211.75c-.21.59-.06,1.18.33,1.31s.87-.23,1.07-.82.06-1.19-.32-1.32S229.46,211.15,229.25,211.75Z"
              style="fill:#263238"></path>
        <path d="M229.14,212.91a22.54,22.54,0,0,0,1.07,6.06,3.63,3.63,0,0,1-3-.46Z" style="fill:#a02724"></path>
        <path d="M228.29,207.73a.36.36,0,0,0,.23,0,2.92,2.92,0,0,1,2.63.4.37.37,0,0,0,.48-.56,3.67,3.67,0,0,0-3.32-.55.37.37,0,0,0,0,.7Z"
              style="fill:#263238"></path>
        <path d="M207.32,213.93c1.12,5.69,2.23,16.12-1.75,19.92,0,0,1.56,5.77,12.14,5.77,11.63,0,5.56-5.77,5.56-5.77-6.35-1.52-6.19-6.23-5.08-10.65Z"
              style="fill:#b55b52"></path>
        <path d="M204.05,235.83c-.84-1.83-1.75-3.92.14-4.57,2.09-.72,13.53-1.46,17.47-.11a4.06,4.06,0,0,1,2.83,5.06Z"
              style="fill:#263238"></path>
        <path d="M244,245.59c2.45,4.41,5.08,8.95,7.74,13.31s5.45,8.7,8.43,12.66c.74,1,1.51,1.95,2.27,2.9.38.49.78.89,1.17,1.34l.58.66.15.17.07.08,0,0,.07.09a4.38,4.38,0,0,0,1.64,1,15.7,15.7,0,0,0,2.91.71,65.22,65.22,0,0,0,14.61-.17l1.52,5.3c-1.35.6-2.61,1-3.95,1.5s-2.66.83-4,1.17a38.86,38.86,0,0,1-8.68,1.16,21.23,21.23,0,0,1-4.89-.49,13.49,13.49,0,0,1-5.44-2.42l-.67-.55-.16-.14-.1-.1-.19-.19-.78-.77c-.51-.51-1.07-1-1.53-1.54-1-1.05-1.94-2.1-2.81-3.18a129.93,129.93,0,0,1-9.65-13.29q-2.19-3.42-4.22-6.91c-1.36-2.35-2.67-4.65-3.94-7.13Z"
              style="fill:#b55b52"></path>
        <path d="M191.64,235.61c-7.3,1.67-15.66,21.56-15.66,21.56l14.65,10a123.23,123.23,0,0,0,9.67-16.45C204.63,241.66,199.1,233.9,191.64,235.61Z"
              style="fill:#5F6184"></path>
        <path d="M196.86,248.29l-6.92,18.44.68.48s3-4.21,6.24-9.89Z" style="opacity:0.2"></path>
        <path d="M235.24,236s8.28,9.36.46,67.26H194.07c-.28-6.39,3.73-37.55-2.43-67.66a108.85,108.85,0,0,1,13.93-1.76,151.37,151.37,0,0,1,17.7,0A77.87,77.87,0,0,1,235.24,236Z"
              style="fill:#5F6184"></path>
        <path d="M230.61,252.75a37,37,0,0,0,8.22,17.82c.17-3.73.24-7.08.23-10.07Z" style="opacity:0.2"></path>
        <path d="M227,242.32c-1,7.37,13.5,26.19,13.5,26.19l14.59-10s-4.05-10.37-10.86-17.17C236.47,233.54,228.14,234.3,227,242.32Z"
              style="fill:#5F6184"></path>
        <path d="M282,278.39l5.94-2.44,6.11,4.62s-5.83,5.16-11.13,3.15Z" style="fill:#b55b52"></path>
        <polygon points="291.86 275.71 296.34 278.91 294.02 280.57 287.91 275.95 291.86 275.71"
                 style="fill:#b55b52"></polygon>
        <path d="M209.91,203.61c-2.08,7.44-3.68,11.69-1.3,16.7,3.57,7.55,13.72,7.34,18,.68,3.84-6,6.6-17.16.48-22.53A10.54,10.54,0,0,0,209.91,203.61Z"
              style="fill:#b55b52"></path>
        <path d="M225.75,203.69c-3,8.54-6.53,17.92-15.15,16.14-5.56-1.15-6-10.1-8-14.17-1.77-3.57-1.66-10.75,2-10.84-1.64-2.38,6.65-11.09,12.31-6.49,1.45-2,11.9-7.89,19.64,1.46C243.84,198.63,240.27,206,225.75,203.69Z"
              style="fill:#263238"></path>
        <path d="M219,209.15a8.8,8.8,0,0,0,1.22,5.47c1.33,2.14,3.28,1.32,4-.87.64-2,.71-5.45-1.14-6.84S219.28,206.85,219,209.15Z"
              style="fill:#b55b52"></path>
        <path d="M282.88,406.88c1,0,2-.14,2.29-.59a.71.71,0,0,0,0-.81,1,1,0,0,0-.58-.43c-1.3-.35-4,1.2-4.13,1.27a.17.17,0,0,0-.09.19.19.19,0,0,0,.14.15A13.6,13.6,0,0,0,282.88,406.88Zm1.24-1.51a1.25,1.25,0,0,1,.35,0,.52.52,0,0,1,.36.26c.13.23.09.34,0,.4-.36.51-2.33.52-3.78.31A8.35,8.35,0,0,1,284.12,405.37Z"
              style="fill:#5F6184"></path>
        <path d="M280.53,406.66l.08,0c.94-.42,2.8-2.1,2.65-3,0-.21-.18-.46-.68-.52a1.36,1.36,0,0,0-1,.32c-1,.81-1.2,2.91-1.21,3a.19.19,0,0,0,.07.17A.23.23,0,0,0,280.53,406.66Zm1.9-3.15h.11c.33,0,.35.17.36.21.09.53-1.18,1.85-2.14,2.42a4.3,4.3,0,0,1,1-2.39A1,1,0,0,1,282.43,403.51Z"
              style="fill:#5F6184"></path>
        <polygon points="271.48 406.48 279.26 406.48 281.03 388.45 273.25 388.45 271.48 406.48"
                 style="fill:#b55b52"></polygon>
        <path d="M279.7,405.58h-8.49a.69.69,0,0,0-.67.54L269,413a1.13,1.13,0,0,0,1.12,1.39c3.06-.05,7.49-.23,11.34-.23,4.51,0,8.4.24,13.68.24,3.2,0,4.09-3.23,2.75-3.52-6.09-1.33-11.06-1.47-16.32-4.72A3.61,3.61,0,0,0,279.7,405.58Z"
              style="fill:#263238"></path>
        <polygon points="281.02 388.46 280.12 397.75 272.33 397.75 273.24 388.46 281.02 388.46"
                 style="opacity:0.2"></polygon>
        <path d="M251.69,406.87a2.51,2.51,0,0,0,1.87-.51.74.74,0,0,0,0-.87.85.85,0,0,0-.58-.43c-1.14-.27-3.29,1.2-3.38,1.26a.21.21,0,0,0-.08.19.18.18,0,0,0,.14.14A9.58,9.58,0,0,0,251.69,406.87Zm1-1.48a.78.78,0,0,1,.22,0,.46.46,0,0,1,.34.24c.17.31.07.43,0,.48-.33.43-1.92.44-3.09.25A6,6,0,0,1,252.67,405.39Z"
              style="fill:#5F6184"></path>
        <path d="M249.71,406.66l.08,0c.81-.44,2.37-2.14,2.2-3a.6.6,0,0,0-.59-.49,1,1,0,0,0-.78.24c-.9.74-1.09,3-1.1,3.08a.2.2,0,0,0,.09.17A.17.17,0,0,0,249.71,406.66Zm1.57-3.15h.08c.24,0,.26.14.27.19.1.51-.9,1.8-1.7,2.41a4.41,4.41,0,0,1,.92-2.44A.66.66,0,0,1,251.28,403.51Z"
              style="fill:#5F6184"></path>
        <polygon points="240.79 406.48 248.57 406.48 252.48 388.45 244.7 388.45 240.79 406.48"
                 style="fill:#b55b52"></polygon>
        <path d="M249.12,405.58h-8.74a.68.68,0,0,0-.66.54L238.18,413a1.15,1.15,0,0,0,1.14,1.39c3.05-.05,4.54-.23,8.38-.23,2.37,0,5.4.24,8.67.24s3.69-3.23,2.35-3.52c-6-1.31-6.41-3.12-8.33-4.85A1.9,1.9,0,0,0,249.12,405.58Z"
              style="fill:#263238"></path>
        <g style="opacity:0.2">
            <polygon points="244.7 388.46 252.48 388.46 250.46 397.75 242.68 397.75 244.7 388.46"></polygon>
        </g>
        <path d="M235.7,303.27s58.3,6.17,57.66,35.91a164.52,164.52,0,0,1-10.62,54.62H271.18s.59-18.87.2-49.32c-.12-9.13-18.55-12.14-36.56-13.2a41,41,0,0,1-35.24-25.07l-1.23-2.94Z"
              style="fill:#263238"></path>
        <path d="M285.57,390.7c.06,0-.75,5.47-.75,5.47h-16l-.44-4.88Z" style="fill:#5F6184"></path>
        <path d="M223.22,303.27s42.26,14,43.33,31.36c2,31.94-13.71,59.17-13.71,59.17H241.17s4.43-13.5,6-42.44c2-36.35-65.83-.06-53.12-48.09Z"
              style="fill:#263238"></path>
        <path d="M256.37,390.7c.06,0-1.47,5.47-1.47,5.47h-16l.29-4.88Z" style="fill:#5F6184"></path>
        <path d="M253.7,333.89h-65a7.42,7.42,0,0,1,7.42-7.42h50.16a7.42,7.42,0,0,1,7.42,7.42Z"
              style="fill:#5F6184"></path>
        <polygon points="191.71 333.88 181.91 416.04 184.01 416.04 196.44 333.88 191.71 333.88"
                 style="fill:#5F6184"></polygon>
        <polygon points="191.71 333.88 181.91 416.04 184.01 416.04 196.44 333.88 191.71 333.88"
                 style="opacity:0.4"></polygon>
        <polygon points="204.82 333.88 204.63 416.04 206.72 416.04 209.55 333.88 204.82 333.88"
                 style="fill:#5F6184"></polygon>
        <polygon points="204.82 333.88 204.63 416.04 206.72 416.04 209.55 333.88 204.82 333.88"
                 style="opacity:0.4"></polygon>
        <polygon points="250.69 333.88 260.49 416.04 258.39 416.04 245.97 333.88 250.69 333.88"
                 style="fill:#5F6184"></polygon>
        <polygon points="250.69 333.88 260.49 416.04 258.39 416.04 245.97 333.88 250.69 333.88"
                 style="opacity:0.4"></polygon>
        <polygon points="237.58 333.88 237.77 416.04 235.68 416.04 232.85 333.88 237.58 333.88"
                 style="fill:#5F6184"></polygon>
        <polygon points="237.58 333.88 237.77 416.04 235.68 416.04 232.85 333.88 237.58 333.88"
                 style="opacity:0.4"></polygon>
    </g>
</svg>
