<svg version="1.0" xmlns="http://www.w3.org/2000/svg"
     width="250.000000pt" height="250.000000pt" viewBox="0 0 250.000000 250.000000"
     preserveAspectRatio="xMidYMid meet">

<g transform="translate(0.000000,250.000000) scale(0.100000,-0.100000)"
   fill="#5f6184" stroke="none">
  <path d="M1150 2463 c-78 -41 -115 -103 -115 -193 l0 -66 -254 -146 -254 -147
-31 23 c-84 62 -191 60 -271 -6 -52 -43 -75 -95 -75 -168 0 -93 40 -157 123
-198 l38 -18 0 -294 0 -293 -48 -26 c-71 -39 -106 -96 -111 -180 -5 -76 14
-125 65 -173 76 -73 214 -77 288 -8 20 18 24 16 275 -129 l255 -147 -3 -55
c-4 -73 35 -151 96 -194 64 -44 180 -44 244 0 63 44 100 121 96 199 l-3 58
253 146 252 145 23 -21 c75 -71 212 -68 290 6 47 44 67 94 67 165 0 56 -4 71
-32 113 -21 31 -50 58 -81 75 l-48 26 0 293 0 294 38 18 c83 41 123 105 123
198 0 73 -23 125 -75 168 -80 66 -187 68 -271 6 l-31 -23 -255 147 -256 147 5
55 c10 116 -83 219 -205 228 -48 3 -66 -1 -112 -25z m-382 -926 c-182 -314
-334 -576 -339 -582 -5 -5 -9 117 -9 292 l0 301 28 10 c79 27 131 109 132 207
l0 60 253 146 c138 80 255 144 259 142 3 -1 -142 -261 -324 -576z m1114 309
c37 -21 38 -22 38 -81 1 -98 53 -180 132 -207 l28 -10 0 -301 c0 -175 -4 -297
-9 -292 -18 20 -668 1154 -664 1159 2 2 102 -52 221 -121 119 -69 234 -135
254 -147z m-465 34 c56 -96 183 -317 283 -490 311 -538 285 -488 267 -508 -9
-10 -23 -34 -32 -55 l-15 -37 -670 0 -670 0 -15 37 c-9 21 -23 45 -31 54 -13
14 -13 21 -3 41 12 21 313 544 549 953 l104 180 66 0 66 0 101 -175z m503
-1202 c0 -12 -486 -298 -504 -298 -4 0 -22 11 -39 24 -73 55 -182 55 -255 0
l-32 -25 -255 147 c-140 81 -255 151 -255 155 0 5 301 9 670 9 529 0 670 -3
670 -12z"/>
  <path d="M1217 1636 c-7 -8 -21 -35 -31 -60 -23 -61 -50 -68 -118 -33 -56 29
-75 26 -105 -19 -14 -22 -15 -31 -5 -55 7 -16 17 -42 24 -58 10 -26 9 -33 -6
-50 -10 -11 -32 -23 -50 -26 -52 -11 -76 -32 -76 -66 0 -45 15 -66 57 -79 73
-24 90 -58 54 -108 -33 -48 -34 -67 -5 -101 30 -37 46 -38 108 -10 43 19 49
19 70 5 15 -9 26 -30 31 -53 9 -49 31 -73 67 -73 45 0 66 16 80 61 6 23 23 48
36 57 23 15 27 14 72 -11 60 -34 70 -34 103 1 32 34 33 50 6 104 -29 57 -16
82 52 103 60 17 69 27 69 72 0 37 -9 47 -69 77 -67 32 -71 46 -37 110 29 53
29 55 12 81 -29 44 -56 50 -111 26 -26 -12 -53 -21 -60 -21 -20 0 -42 32 -54
77 -7 24 -20 47 -31 53 -27 14 -66 12 -83 -4z m127 -230 c68 -40 105 -126 85
-199 -38 -146 -209 -194 -310 -87 -84 88 -66 224 38 287 53 32 132 32 187 -1z"/>
</g>
</svg>
